<?xml version="1.0" encoding="iso-8859-1"?>
<!-- Generator: Adobe Illustrator 19.0.0, SVG Export Plug-In . SVG Version: 6.00 Build 0)  -->
<svg version="1.1" id="Capa_1" xmlns="http://www.w3.org/2000/svg" xmlns:xlink="http://www.w3.org/1999/xlink" x="0px" y="0px"
	 viewBox="0 0 512 512" style="enable-background:new 0 0 512 512;" xml:space="preserve">
<g>
	<g>
		<g>
			<circle cx="256" cy="64" r="21.333"/>
			<circle cx="288" cy="96" r="10.667"/>
			<path d="M334.633,145.029c25.681-2.975,40.272-6.432,41.284-6.685c4.75-1.188,8.083-5.448,8.083-10.344
				C384,57.417,326.583,0,256,0c-32.801,0-62.66,12.505-85.333,32.863V10.667C170.667,4.771,165.896,0,160,0
				s-10.667,4.771-10.667,10.667v46.729C135.882,77.652,128,101.914,128,128c0,4.896,3.333,9.156,8.083,10.344
				c1.012,0.253,15.603,3.71,41.284,6.685C110.641,175.142,64,242.168,64,320c0,105.865,86.135,192,192,192s192-86.135,192-192
				C448,242.168,401.359,175.142,334.633,145.029z M414.551,257.225c-26.046,5.02-46.362,25.863-50.806,52.108h-44.823
				c-4.523-26.719-25.536-47.732-52.255-52.255v-44.823c26.245-4.444,47.089-24.76,52.108-50.806
				C362.418,178.793,397.207,213.582,414.551,257.225z M298.667,320c0,23.531-19.135,42.667-42.667,42.667
				S213.333,343.531,213.333,320s19.135-42.667,42.667-42.667S298.667,296.469,298.667,320z M213.913,154.801
				c13.491-3.441,27.54-5.467,42.087-5.467c14.556,0,28.615,2.029,42.113,5.474C295.393,175.733,277.656,192,256,192
				C234.349,192,216.617,175.743,213.913,154.801z M149.677,119.406C154.073,64.594,200.073,21.333,256,21.333
				s101.927,43.26,106.323,98.073C346.635,122.354,309.604,128,256,128S165.365,122.354,149.677,119.406z M193.225,161.449
				c5.02,26.046,25.863,46.362,52.108,50.806v44.823c-26.719,4.523-47.732,25.536-52.255,52.255h-44.823
				c-4.444-26.245-24.76-47.089-50.806-52.108C114.793,213.582,149.582,178.793,193.225,161.449z M85.333,320
				c0-14.556,2.029-28.615,5.474-42.113C111.733,280.607,128,298.344,128,320c0,21.641-16.26,39.382-37.199,42.086
				C87.359,348.596,85.333,334.547,85.333,320z M193.225,478.551c-43.643-17.344-78.432-52.133-95.776-95.776
				c26.046-5.02,46.362-25.863,50.806-52.108h44.823c4.523,26.719,25.536,47.732,52.255,52.255v44.823
				C219.089,432.189,198.245,452.505,193.225,478.551z M256,490.667c-14.556,0-28.615-2.029-42.113-5.474
				C216.607,464.267,234.344,448,256,448c21.651,0,39.383,16.257,42.087,37.199C284.596,488.641,270.547,490.667,256,490.667z
				 M318.775,478.551c-5.02-26.046-25.863-46.362-52.108-50.806v-44.823c26.719-4.523,47.732-25.536,52.255-52.255h44.823
				c4.444,26.245,24.76,47.089,50.806,52.108C397.207,426.418,362.418,461.207,318.775,478.551z M384,320
				c0-21.641,16.26-39.382,37.199-42.086c3.441,13.49,5.467,27.539,5.467,42.086c0,14.556-2.029,28.615-5.474,42.113
				C400.267,359.393,384,341.656,384,320z"/>
		</g>
	</g>
</g>
<g>
</g>
<g>
</g>
<g>
</g>
<g>
</g>
<g>
</g>
<g>
</g>
<g>
</g>
<g>
</g>
<g>
</g>
<g>
</g>
<g>
</g>
<g>
</g>
<g>
</g>
<g>
</g>
<g>
</g>
</svg>
